<?xml version="1.0" encoding="utf-8"?>
<svg version="1.1" id="Layer_1" xmlns="http://www.w3.org/2000/svg" xmlns:xlink="http://www.w3.org/1999/xlink" x="0px" y="0px"
	 viewBox="0 0 130 130" style="enable-background:new 0 0 130 130;" xml:space="preserve">
<style type="text/css">
	.icon{fill:#00CCFF;}
</style>
	<g>
		<path class="icon" d="M48.7,90.9C48.7,90.9,48.7,90.9,48.7,90.9z M65.6,16.3C49.3,30.1,35.5,47.5,25.9,66.6c0.8,1.5,1.6,3,2.4,4.5
			l0,0l0.1,0.1l0.5,0.9l0,0l0.5,0.9l0.1,0.1l0,0l0,0.1l0,0c3.7,6.5,7.8,12.7,12.3,18.6l0,0l0,0l0,0l0,0l0,0l0,0l0,0l0,0l0,0l0,0l0,0
			l0,0l0,0l0,0l0,0l0,0l0,0l0,0l0,0l0,0l0,0l0,0l0,0l0,0l0,0l0,0c0.5,0.6,1,1.3,1.5,1.9c0.7,0.9,1.5,1.8,2.3,2.8
			c4.4-13.3,10.9-25.7,19.3-36.9c6.9,9.2,12.6,19.3,16.9,30.1c0.9,2.2,1.7,4.5,2.4,6.7c0.8-0.9,1.5-1.8,2.3-2.8
			c0.7-0.8,1.3-1.7,2-2.5l0,0l0,0l0,0l0,0l0.1-0.1l0,0l0,0l0,0l0,0v0c4.5-5.9,8.6-12.1,12.3-18.6l0,0l0.1-0.1l0.1-0.1l0.2-0.3
			l0.1-0.1l0.1-0.1l0,0l0.1-0.1l0.1-0.1l0.1-0.1l0,0l0-0.1l0.5-0.9l0,0l0.3-0.5l0.1-0.1l0.1-0.1l0,0c0.7-1.3,1.4-2.6,2-3.9
			C95.7,47.5,82,30.1,65.6,16.3L65.6,16.3z M32.8,66.6c8.4-15.8,19.5-30.1,32.8-42.2c13.3,12,24.4,26.3,32.8,42.2
			c-3.4,6.5-7.3,12.7-11.6,18.6c-4.5-10.6-10.3-20.5-17.3-29.4c-1.3-1.7-2.6-3.3-3.9-4.9c-1.4,1.6-2.7,3.2-3.9,4.9l0,0l0,0
			c-6.9,9-12.8,18.9-17.3,29.4C40.1,79.3,36.3,73.1,32.8,66.6L32.8,66.6z"/>
		<path class="icon" d="M50.3,102.2c0.6,0.7,1.2,1.3,1.8,2c1.4,1.5,2.8,3,4.3,4.4c1.5,1.5,3,2.9,4.5,4.3c1.5,1.4,3.1,2.8,4.7,4.1
			c1.6-1.3,3.1-2.7,4.7-4.1c1.5-1.4,3-2.8,4.5-4.3c1.5-1.4,2.9-2.9,4.3-4.4c0.6-0.6,1.2-1.3,1.8-2l-1-2.9c-0.4-1.3-0.9-2.5-1.3-3.8
			l-0.1,0.1c-1.3,1.5-2.7,3.1-4.1,4.6c-1.4,1.5-2.8,3-4.3,4.4c-1.5,1.4-3,2.9-4.5,4.2c-1.5-1.4-3-2.8-4.5-4.2
			c-1.5-1.4-2.9-2.9-4.3-4.4c-1.4-1.5-2.8-3-4.1-4.6l-0.1-0.1c-0.5,1.2-0.9,2.5-1.3,3.8L50.3,102.2z M108.2,60.7l0.1-0.2
			c0.8-1.9,1.6-3.8,2.4-5.7c0.8-1.9,1.5-3.8,2.2-5.8c0.7-1.9,1.3-3.9,2-5.8c0.6-2,1.2-3.9,1.7-5.9c0.5-2,1-4,1.5-6
			c-1.9-0.7-3.9-1.3-5.9-1.9c-2-0.6-3.9-1.2-5.9-1.7c-2-0.5-4-1-6-1.5c-2-0.4-4-0.9-6-1.2c-2-0.4-4-0.7-6.1-1
			c-2.5-0.3-4.9-0.6-7.4-0.9c2.2,2.3,4.3,4.6,6.4,6.9c1.9,0.3,3.8,0.6,5.6,0.9c2,0.4,4,0.8,6.1,1.2c2,0.4,4,0.9,6,1.5
			c2,0.5,4,1.1,5.9,1.7c-0.5,2-1.1,4-1.7,5.9c-0.6,2-1.3,3.9-2,5.8c-0.7,1.9-1.4,3.9-2.2,5.8c-0.1,0.4-0.3,0.7-0.4,1.1
			C105.7,56.2,107,58.4,108.2,60.7L108.2,60.7z M19.1,29.4c-2,0.6-3.9,1.2-5.9,1.9c0.5,2,1,4,1.5,6c0.5,2,1.1,4,1.7,5.9
			c0.6,2,1.3,3.9,2,5.8c0.7,1.9,1.4,3.9,2.2,5.8c0.8,1.9,1.6,3.8,2.4,5.7l0.1,0.2c1.2-2.3,2.5-4.5,3.8-6.7c-0.1-0.4-0.3-0.7-0.4-1.1
			c-0.8-1.9-1.5-3.8-2.2-5.8c-0.7-1.9-1.3-3.9-2-5.8c-0.6-2-1.2-3.9-1.7-5.9c2-0.6,3.9-1.2,5.9-1.7c2-0.5,4-1,6-1.5
			c2-0.4,4-0.8,6.1-1.2c1.9-0.3,3.7-0.6,5.6-0.9c2.1-2.4,4.2-4.7,6.4-6.9c-2.5,0.2-5,0.5-7.4,0.9c-2,0.3-4.1,0.6-6.1,1
			c-2,0.4-4,0.8-6,1.2h0c-2,0.4-4,0.9-6,1.5C23,28.2,21,28.8,19.1,29.4z"/>
	</g>
</svg>
